<svg width="1080" height="1080" viewBox="0 0 1080 1080" fill="none" xmlns="http://www.w3.org/2000/svg">
<path d="M4 819.64L48.31 674.7H89.18L133.47 819.64H105.28L65.83 691.81H71.06L32.21 819.64H4ZM30.57 789.44V763.88H107.07V789.44H30.57Z" fill="#AB9AFF"/>
<path d="M151.59 819.64V710.93H175.74V737.51L173.13 734.08C174.49 730.401 176.387 726.943 178.76 723.82C181.116 720.726 184.059 718.127 187.42 716.17C190.089 714.536 192.965 713.265 195.97 712.39C199.091 711.485 202.299 710.911 205.54 710.68C208.827 710.449 212.129 710.532 215.4 710.93V736.5C211.987 735.508 208.418 735.169 204.88 735.5C201.133 735.745 197.464 736.684 194.06 738.27C190.966 739.637 188.194 741.638 185.924 744.145C183.653 746.651 181.935 749.607 180.88 752.82C179.685 756.438 179.103 760.23 179.16 764.04V819.6L151.59 819.64Z" fill="#AB9AFF"/>
<path d="M296.73 822.66C282.23 822.66 269.73 819.507 259.23 813.2C248.758 806.912 240.34 797.716 235 786.73C229.333 775.397 226.5 762.21 226.5 747.17C226.5 732.13 229.333 718.943 235 707.61C240.348 696.62 248.777 687.423 259.26 681.14C269.76 674.833 282.26 671.68 296.76 671.68C313.427 671.68 327.4 675.807 338.68 684.06C349.96 692.313 357.927 703.487 362.58 717.58L335 725.23C332.333 716.443 327.807 709.613 321.42 704.74C315.033 699.867 306.813 697.437 296.76 697.45C287.56 697.45 279.893 699.497 273.76 703.59C267.499 707.824 262.673 713.861 259.92 720.9C256.833 728.353 255.29 737.11 255.29 747.17C255.29 757.23 256.833 765.987 259.92 773.44C262.673 780.479 267.499 786.515 273.76 790.75C279.9 794.85 287.567 796.897 296.76 796.89C306.82 796.89 315.04 794.44 321.42 789.54C327.8 784.64 332.327 777.83 335 769.11L362.58 776.76C357.953 790.847 349.987 802.02 338.68 810.28C327.373 818.54 313.39 822.667 296.73 822.66Z" fill="#AB9AFF"/>
<path d="M433.61 822.66C422.67 822.66 413.077 820.21 404.83 815.31C396.634 810.471 389.956 803.436 385.55 795C380.95 786.38 378.654 776.467 378.66 765.26C378.66 753.927 380.994 743.943 385.66 735.31C390.141 726.912 396.868 719.925 405.09 715.13C413.343 710.303 422.837 707.887 433.57 707.88C444.51 707.88 454.124 710.33 462.41 715.23C470.63 720.056 477.341 727.079 481.79 735.51C486.417 744.137 488.73 754.053 488.73 765.26C488.73 776.467 486.397 786.413 481.73 795.1C477.267 803.52 470.541 810.527 462.31 815.33C454.05 820.223 444.483 822.667 433.61 822.66ZM433.61 797.09C442.397 797.09 448.957 794.123 453.29 788.19C457.624 782.257 459.787 774.623 459.78 765.29C459.78 755.623 457.584 747.907 453.19 742.14C448.797 736.373 442.27 733.487 433.61 733.48C427.61 733.48 422.714 734.813 418.92 737.48C415.02 740.258 412.053 744.152 410.41 748.65C408.471 753.968 407.532 759.6 407.64 765.26C407.64 774.993 409.84 782.727 414.24 788.46C418.64 794.193 425.097 797.07 433.61 797.09V797.09Z" fill="#AB9AFF"/>
<path d="M510.71 819.64V710.93H535.07V746.93H538.49V819.6L510.71 819.64ZM585 819.64V768.31C585 765.823 584.863 762.65 584.59 758.79C584.298 754.819 583.453 750.908 582.08 747.17C580.719 743.345 578.332 739.969 575.18 737.41C571.993 734.79 567.48 733.48 561.64 733.48C559.088 733.509 556.552 733.883 554.1 734.59C551.28 735.398 548.692 736.865 546.55 738.87C543.894 741.458 541.907 744.653 540.76 748.18C539.253 752.273 538.497 757.707 538.49 764.48L522.79 757C522.732 748.675 524.511 740.439 528 732.88C531.416 725.436 536.878 719.117 543.75 714.66C550.757 710.027 559.597 707.71 570.27 707.71C578.79 707.71 585.737 709.153 591.11 712.04C596.124 714.626 600.427 718.403 603.64 723.04C606.525 727.266 608.685 731.943 610.03 736.88C611.222 741.17 612.005 745.563 612.37 750C612.637 753.96 612.773 756.843 612.78 758.65V819.65L585 819.64Z" fill="#AB9AFF"/>
<path d="M638.74 819.64V710.93H663.1V746.93H666.52V819.6L638.74 819.64ZM713.02 819.64V768.31C713.02 765.823 712.887 762.65 712.62 758.79C712.323 754.819 711.479 750.909 710.11 747.17C708.749 743.345 706.362 739.969 703.21 737.41C700.017 734.79 695.504 733.48 689.67 733.48C687.115 733.51 684.576 733.883 682.12 734.59C679.304 735.401 676.72 736.868 674.58 738.87C671.924 741.458 669.937 744.653 668.79 748.18C667.284 752.273 666.527 757.707 666.52 764.48L650.82 757C650.764 748.663 652.55 740.416 656.05 732.85C659.473 725.407 664.938 719.089 671.81 714.63C678.824 709.997 687.664 707.68 698.33 707.68C706.85 707.68 713.797 709.123 719.17 712.01C724.184 714.596 728.487 718.373 731.7 723.01C734.585 727.236 736.745 731.913 738.09 736.85C739.274 741.15 740.047 745.553 740.4 750C740.667 753.96 740.804 756.843 740.81 758.65V819.65L713.02 819.64Z" fill="#AB9AFF"/>
<path d="M815.49 822.66C804.35 822.66 794.537 820.26 786.05 815.46C777.706 810.813 770.809 803.951 766.12 795.63C761.32 787.21 758.92 777.567 758.92 766.7C758.92 754.82 761.27 744.487 765.97 735.7C770.4 727.191 777.128 720.095 785.39 715.22C793.65 710.36 803.147 707.927 813.88 707.92C825.293 707.913 835 710.607 843 716C851.11 721.526 857.299 729.438 860.71 738.64C864.543 748.373 865.877 759.817 864.71 772.97H837.63V762.87C837.63 751.797 835.87 743.83 832.35 738.97C828.83 734.11 823.077 731.677 815.09 731.67C805.757 731.67 798.893 734.503 794.5 740.17C790.107 745.837 787.91 754.21 787.91 765.29C787.91 775.417 790.107 783.25 794.5 788.79C798.893 794.33 805.353 797.097 813.88 797.09C818.715 797.23 823.493 796.01 827.67 793.57C831.554 791.147 834.609 787.6 836.43 783.4L863.8 791.26C859.989 800.852 853.199 808.967 844.43 814.41C835.767 819.863 825.726 822.725 815.49 822.66V822.66ZM779.49 772.94V752.6H851.56V772.94H779.49Z" fill="#AB9AFF"/>
<path d="M935.26 822.66C923.993 822.66 914.327 820.143 906.26 815.11C898.271 810.154 891.85 803.035 887.74 794.58C883.336 785.453 881.127 775.423 881.29 765.29C881.29 754.283 883.523 744.453 887.99 735.8C892.249 727.359 898.786 720.279 906.86 715.36C914.98 710.4 924.577 707.917 935.65 707.91C948.463 707.91 959.217 711.15 967.91 717.63C976.603 724.11 982.157 732.95 984.57 744.15L957.19 751.4C955.87 746.217 952.922 741.594 948.78 738.21C944.95 735.114 940.165 733.442 935.24 733.48C929.473 733.48 924.743 734.873 921.05 737.66C917.282 740.556 914.454 744.502 912.92 749C911.102 754.225 910.215 759.728 910.3 765.26C910.3 774.72 912.397 782.387 916.59 788.26C920.783 794.133 927.007 797.067 935.26 797.06C941.44 797.06 946.14 795.653 949.36 792.84C952.58 790.027 954.993 786 956.6 780.76L984.6 786.6C981.533 798.16 975.69 807.06 967.07 813.3C958.45 819.54 947.847 822.66 935.26 822.66Z" fill="#AB9AFF"/>
<path d="M992.64 732.07V710.93H1069.94V732.07H992.64ZM1069.94 819.64C1062.66 821.03 1055.26 821.653 1047.85 821.5C1041.22 821.451 1034.67 820.155 1028.52 817.68C1023.01 815.44 1018.44 811.368 1015.59 806.15C1012.99 801.511 1011.54 796.316 1011.36 791C1011.22 785.873 1011.15 780.053 1011.16 773.54V680.74H1038.53V771.93C1038.53 776.163 1038.58 779.97 1038.68 783.35C1038.64 786.189 1039.35 788.988 1040.75 791.46C1043.16 795.28 1047.02 797.36 1052.32 797.7C1058.21 798.01 1064.11 797.738 1069.94 796.89V819.64Z" fill="#AB9AFF"/>
<path d="M683.32 438.37L712.42 433.16L686.05 403.64L708.89 390.88L680 369.34L698.58 324.67H657.93L668.61 280.8L625.06 303.14L637 245.31L593 281.6L588.33 225.77L555.06 276L534.31 209L513.58 276L480.32 225.75L475.66 281.58L431.66 245.29L443.56 303.12L400 280.8L410.69 324.67H370.06L388.64 369.34L359.75 390.88L382.58 403.64L356.21 433.16L385.31 438.37L365.31 476.37L391.11 486L383.75 510.46L404.67 505.85L406.76 536L424.15 527.14L425.73 554.79L439.57 550.18C439.57 550.18 464.08 575.62 513.32 562.68C516.158 561.967 518.794 560.614 521.029 558.724C523.263 556.835 525.035 554.46 526.21 551.78C528.77 545.78 527.92 538.42 511.49 535.72C482.54 530.96 442.49 536.54 427.96 500.2C427.857 499.945 427.836 499.664 427.899 499.397C427.962 499.129 428.107 498.887 428.313 498.705C428.519 498.523 428.777 498.41 429.05 498.38C429.324 498.35 429.6 498.406 429.84 498.54C447.71 508.65 489.57 517.78 493.06 498.67C496.78 478.3 478.9 471.57 468.79 466C458.68 460.43 412.79 445.55 414.89 418.18C416.99 390.81 446.89 398.13 453.66 403.58C459.76 407.58 520.06 444.66 520.06 444.66C520.06 444.66 498.2 473.66 534.31 473.66C570.42 473.66 548.58 444.66 548.58 444.66C548.58 444.66 608.86 407.56 614.98 403.58C621.75 398.13 651.63 390.83 653.75 418.18C655.87 445.53 609.93 460.38 599.83 466C589.73 471.62 571.83 478.3 575.57 498.67C579.07 517.77 620.9 508.67 638.78 498.54C639.021 498.404 639.299 498.347 639.574 498.377C639.849 498.406 640.108 498.521 640.315 498.705C640.522 498.889 640.667 499.132 640.728 499.402C640.79 499.672 640.766 499.954 640.66 500.21C626.15 536.54 586.08 530.96 557.13 535.72C540.71 538.42 539.85 545.72 542.42 551.78C543.591 554.459 545.36 556.834 547.59 558.723C549.821 560.613 552.455 561.966 555.29 562.68C604.55 575.62 629.07 550.18 629.07 550.18L642.91 554.79L644.49 527.14L661.87 536L663.97 505.86L684.89 510.47L677.53 486L703.29 476.43L683.32 438.37ZM495.79 399.68C491.872 399.68 488.042 398.518 484.784 396.341C481.526 394.165 478.987 391.071 477.488 387.451C475.989 383.831 475.596 379.848 476.361 376.005C477.125 372.162 479.012 368.633 481.782 365.862C484.553 363.092 488.082 361.205 491.925 360.441C495.768 359.676 499.751 360.069 503.371 361.568C506.991 363.067 510.085 365.606 512.261 368.864C514.438 372.122 515.6 375.952 515.6 379.87C515.6 385.124 513.513 390.163 509.798 393.878C506.083 397.593 501.044 399.68 495.79 399.68V399.68ZM572.84 399.68C568.922 399.68 565.092 398.518 561.834 396.341C558.576 394.165 556.037 391.071 554.538 387.451C553.039 383.831 552.646 379.848 553.411 376.005C554.175 372.162 556.062 368.633 558.832 365.862C561.603 363.092 565.132 361.205 568.975 360.441C572.818 359.676 576.801 360.069 580.421 361.568C584.041 363.067 587.135 365.606 589.311 368.864C591.488 372.122 592.65 375.952 592.65 379.87C592.651 382.472 592.14 385.048 591.145 387.453C590.15 389.857 588.69 392.041 586.851 393.881C585.011 395.72 582.827 397.18 580.422 398.175C578.018 399.17 575.442 399.681 572.84 399.68V399.68Z" fill="#AB9AFF"/>
</svg>
