<svg width="1080" height="1080" viewBox="0 0 1080 1080" fill="none" xmlns="http://www.w3.org/2000/svg">
<g>
<path d="M990.42 693.26L1078.37 677.5L998.66 588.29L1067.66 549.7L980.33 484.61L1036.5 349.61H913.66L945.93 217L814.3 284.48L850.3 109.68L717.3 219.39L703.19 50.62L602.7 202.51L540 0L477.32 202.51L376.79 50.62L362.69 219.39L229.74 109.68L265.74 284.48L134.05 217L166.36 349.6H43.49L99.64 484.6L12.33 549.7L81.33 588.29L1.63 677.5L89.63 693.26L29.3 808.26L107.16 837.2L84.86 911.09L148.11 897.16L154.42 988.25L207 961.46L211.77 1045.04L253.63 1031.11C253.63 1031.11 327.7 1108.02 476.56 1068.91C493.84 1064.38 508.56 1052.41 515.5 1035.91C523.26 1017.67 520.69 995.54 471.01 987.36C383.5 973 262.38 989.89 218.51 880C218.192 879.229 218.123 878.379 218.312 877.567C218.501 876.755 218.939 876.023 219.565 875.472C220.19 874.921 220.972 874.579 221.802 874.495C222.631 874.41 223.466 874.587 224.19 875C278.19 905.58 404.74 933.17 415.28 875.39C426.54 813.84 372.48 793.49 341.93 776.64C311.38 759.79 172.55 714.83 179 632.12C185.45 549.41 275.72 571.5 296.19 588C314.64 600 496.91 712.18 496.91 712.18C496.91 712.18 430.82 799.92 540 799.92C649.18 799.92 583.12 712.16 583.12 712.16C583.12 712.16 765.34 600 783.83 588C804.3 571.5 894.61 549.43 901 632.12C907.39 714.81 768.52 759.8 738 776.65C707.48 793.5 653.43 813.85 664.65 875.4C675.23 933.16 801.65 905.61 855.72 875.03C856.444 874.613 857.281 874.434 858.112 874.516C858.944 874.599 859.728 874.94 860.356 875.492C860.984 876.044 861.423 876.778 861.612 877.592C861.801 878.406 861.73 879.258 861.41 880.03C817.6 989.89 696.48 973 609 987.4C559.34 995.58 556.75 1017.71 564.53 1035.95C571.53 1052.41 586.15 1064.38 603.43 1068.95C752.33 1108.06 826.43 1031.15 826.43 1031.15L868.27 1045L873 961.46L925.54 988.25L931.87 897.16L995.1 911.09L972.87 837.16L1050.73 808.22L990.42 693.26ZM423.54 576.26C411.698 576.26 400.123 572.748 390.277 566.169C380.431 559.59 372.758 550.239 368.226 539.299C363.695 528.359 362.51 516.32 364.821 504.706C367.132 493.092 372.835 482.425 381.209 474.052C389.583 465.679 400.252 459.978 411.866 457.669C423.48 455.36 435.519 456.547 446.458 461.08C457.398 465.613 466.748 473.288 473.325 483.135C479.902 492.982 483.412 504.558 483.41 516.4C483.414 524.264 481.868 532.052 478.861 539.319C475.854 546.586 471.444 553.189 465.884 558.75C460.325 564.312 453.723 568.724 446.457 571.733C439.192 574.743 431.404 576.291 423.54 576.29V576.26ZM656.46 576.26C644.618 576.262 633.041 572.752 623.194 566.174C613.347 559.596 605.672 550.246 601.139 539.306C596.607 528.366 595.42 516.327 597.73 504.712C600.04 493.098 605.742 482.429 614.116 474.056C622.489 465.682 633.158 459.98 644.772 457.67C656.387 455.36 668.426 456.547 679.366 461.079C690.306 465.612 699.656 473.287 706.234 483.134C712.812 492.981 716.322 504.558 716.32 516.4C716.324 524.263 714.779 532.051 711.772 539.317C708.766 546.583 704.357 553.185 698.798 558.747C693.239 564.309 686.639 568.72 679.374 571.731C672.11 574.741 664.323 576.29 656.46 576.29V576.26Z" fill="#000"/>
</g>
<defs>
</defs>
</svg>
